<mxfile host="Electron" agent="Mozilla/5.0 (Macintosh; Intel Mac OS X 10_15_7) AppleWebKit/537.36 (KHTML, like Gecko) draw.io/28.1.2 Chrome/138.0.7204.243 Electron/37.4.0 Safari/537.36" version="28.1.2">
  <diagram name="EER" id="c4acf3e9-155e-7222-9cf6-157b1a14988f">
    <mxGraphModel dx="4586" dy="1504" grid="1" gridSize="10" guides="1" tooltips="1" connect="1" arrows="1" fold="1" page="1" pageScale="1" pageWidth="850" pageHeight="1100" background="none" math="0" shadow="0">
      <root>
        <mxCell id="0" />
        <mxCell id="1" parent="0" />
        <mxCell id="5ki9buzzF8sJnWZIkCCN-9" value="Last Updated on 2025/8/27" style="text;html=1;align=center;verticalAlign=middle;resizable=0;points=[];autosize=1;strokeColor=none;fillColor=none;" parent="1" vertex="1">
          <mxGeometry x="-1860" y="490" width="170" height="30" as="geometry" />
        </mxCell>
        <mxCell id="n5KL9pSzOatZ4EzuZmkm-17" value="&lt;b style=&quot;font-family: Verdana; text-wrap-mode: nowrap;&quot;&gt;&lt;font style=&quot;font-size: 14px;&quot;&gt;game_board_tile&lt;/font&gt;&lt;/b&gt;&lt;div&gt;&lt;div style=&quot;text-align: left;&quot;&gt;card_number&lt;/div&gt;&lt;div style=&quot;text-align: left;&quot;&gt;&lt;span style=&quot;background-color: transparent; color: light-dark(rgb(0, 0, 0), rgb(255, 255, 255));&quot;&gt;pawn_rank&lt;/span&gt;&lt;/div&gt;&lt;div style=&quot;text-align: left;&quot;&gt;power&lt;/div&gt;&lt;/div&gt;" style="rounded=0;whiteSpace=wrap;html=1;fillColor=#d5e8d4;strokeColor=#82b366;verticalAlign=top;" parent="1" vertex="1">
          <mxGeometry x="-1930" y="570" width="320" height="360" as="geometry" />
        </mxCell>
        <mxCell id="n5KL9pSzOatZ4EzuZmkm-10" value="&lt;b style=&quot;font-family: Verdana; text-wrap-mode: nowrap;&quot;&gt;&lt;font style=&quot;font-size: 14px;&quot;&gt;card&lt;/font&gt;&lt;/b&gt;&lt;div&gt;&lt;div style=&quot;text-align: left;&quot;&gt;card_number&lt;/div&gt;&lt;div style=&quot;text-align: left;&quot;&gt;&lt;span style=&quot;background-color: transparent; color: light-dark(rgb(0, 0, 0), rgb(255, 255, 255));&quot;&gt;pawn_rank&lt;/span&gt;&lt;/div&gt;&lt;div style=&quot;text-align: left;&quot;&gt;power&lt;/div&gt;&lt;/div&gt;" style="rounded=0;whiteSpace=wrap;html=1;fillColor=#CCFFFF;strokeColor=#6c8ebf;verticalAlign=top;" parent="1" vertex="1">
          <mxGeometry x="-1910" y="650" width="280" height="260" as="geometry" />
        </mxCell>
        <mxCell id="n5KL9pSzOatZ4EzuZmkm-18" value="&lt;b style=&quot;font-family: Verdana; text-wrap-mode: nowrap;&quot;&gt;&lt;font style=&quot;font-size: 14px;&quot;&gt;card_ability&lt;/font&gt;&lt;/b&gt;&lt;div&gt;&lt;div style=&quot;text-align: left;&quot;&gt;&lt;div&gt;&lt;span style=&quot;background-color: transparent; color: light-dark(rgb(0, 0, 0), rgb(255, 255, 255));&quot;&gt;type&lt;/span&gt;&lt;/div&gt;&lt;div&gt;when&lt;/div&gt;&lt;div&gt;which&lt;/div&gt;&lt;div&gt;action_type&lt;/div&gt;&lt;div&gt;action_value&lt;/div&gt;&lt;/div&gt;&lt;/div&gt;" style="rounded=0;whiteSpace=wrap;html=1;fillColor=#CCFFFF;strokeColor=#6c8ebf;verticalAlign=top;" parent="1" vertex="1">
          <mxGeometry x="-1590" y="725" width="120" height="110" as="geometry" />
        </mxCell>
        <mxCell id="n5KL9pSzOatZ4EzuZmkm-24" value="" style="group" parent="1" vertex="1" connectable="0">
          <mxGeometry x="-1890" y="730" width="240" height="160" as="geometry" />
        </mxCell>
        <mxCell id="n5KL9pSzOatZ4EzuZmkm-20" value="Base Tile" style="whiteSpace=wrap;html=1;aspect=fixed;" parent="n5KL9pSzOatZ4EzuZmkm-24" vertex="1">
          <mxGeometry x="80" y="80" width="80" height="80" as="geometry" />
        </mxCell>
        <mxCell id="n5KL9pSzOatZ4EzuZmkm-21" value="Pawn/&lt;div&gt;Claim&lt;/div&gt;&lt;div&gt;Tile&lt;/div&gt;" style="whiteSpace=wrap;html=1;aspect=fixed;fillColor=#fff2cc;strokeColor=#d6b656;" parent="n5KL9pSzOatZ4EzuZmkm-24" vertex="1">
          <mxGeometry y="80" width="80" height="80" as="geometry" />
        </mxCell>
        <mxCell id="n5KL9pSzOatZ4EzuZmkm-22" value="Pawn/&lt;div&gt;Claim&lt;/div&gt;&lt;div&gt;Tile&lt;/div&gt;" style="whiteSpace=wrap;html=1;aspect=fixed;fillColor=#fff2cc;strokeColor=#d6b656;" parent="n5KL9pSzOatZ4EzuZmkm-24" vertex="1">
          <mxGeometry x="160" y="80" width="80" height="80" as="geometry" />
        </mxCell>
        <mxCell id="n5KL9pSzOatZ4EzuZmkm-23" value="Affected&lt;div&gt;Tile&lt;/div&gt;" style="whiteSpace=wrap;html=1;aspect=fixed;fillColor=#f0a30a;strokeColor=#BD7000;fontColor=#000000;" parent="n5KL9pSzOatZ4EzuZmkm-24" vertex="1">
          <mxGeometry x="80" width="80" height="80" as="geometry" />
        </mxCell>
        <mxCell id="n5KL9pSzOatZ4EzuZmkm-25" value="" style="endArrow=classic;html=1;rounded=0;entryX=0;entryY=0.5;entryDx=0;entryDy=0;" parent="1" source="n5KL9pSzOatZ4EzuZmkm-23" target="n5KL9pSzOatZ4EzuZmkm-18" edge="1">
          <mxGeometry width="50" height="50" relative="1" as="geometry">
            <mxPoint x="-1750" y="790" as="sourcePoint" />
            <mxPoint x="-1700" y="740" as="targetPoint" />
          </mxGeometry>
        </mxCell>
        <mxCell id="n5KL9pSzOatZ4EzuZmkm-26" value="&lt;span style=&quot;font-size: 14px; font-weight: 700; text-wrap-mode: nowrap;&quot;&gt;Play: placing a card at legit tile&lt;/span&gt;" style="rounded=1;whiteSpace=wrap;html=1;" parent="1" vertex="1">
          <mxGeometry x="-765" y="680" width="260" height="60" as="geometry" />
        </mxCell>
        <mxCell id="n5KL9pSzOatZ4EzuZmkm-27" value="Set current card" style="rounded=1;whiteSpace=wrap;html=1;fontSize=14;" parent="1" vertex="1">
          <mxGeometry x="-695" y="780" width="120" height="40" as="geometry" />
        </mxCell>
        <mxCell id="n5KL9pSzOatZ4EzuZmkm-29" value="" style="shape=flexArrow;endArrow=classic;html=1;rounded=0;entryX=0.5;entryY=0;entryDx=0;entryDy=0;" parent="1" target="n5KL9pSzOatZ4EzuZmkm-27" edge="1">
          <mxGeometry width="50" height="50" relative="1" as="geometry">
            <mxPoint x="-635" y="740" as="sourcePoint" />
            <mxPoint x="-725" y="740" as="targetPoint" />
          </mxGeometry>
        </mxCell>
        <mxCell id="n5KL9pSzOatZ4EzuZmkm-30" value="&lt;font&gt;Check card&#39;s immediate abilities (w/o tile, e.g.&amp;nbsp;&lt;/font&gt;&lt;span style=&quot;background-color: transparent; color: light-dark(rgb(128, 128, 128), rgb(127, 127, 127));&quot;&gt;fill empty tiles)&lt;/span&gt;" style="rounded=1;whiteSpace=wrap;html=1;fontColor=#808080;fontSize=13;" parent="1" vertex="1">
          <mxGeometry x="-750" y="855" width="230" height="40" as="geometry" />
        </mxCell>
        <mxCell id="n5KL9pSzOatZ4EzuZmkm-32" value="" style="shape=flexArrow;endArrow=classic;html=1;rounded=0;width=4.444444444444445;endSize=4.075555555555556;endWidth=8.69135802469136;exitX=0.5;exitY=1;exitDx=0;exitDy=0;entryX=0.5;entryY=0;entryDx=0;entryDy=0;" parent="1" source="n5KL9pSzOatZ4EzuZmkm-27" target="n5KL9pSzOatZ4EzuZmkm-30" edge="1">
          <mxGeometry width="50" height="50" relative="1" as="geometry">
            <mxPoint x="-605" y="820" as="sourcePoint" />
            <mxPoint x="-605" y="850" as="targetPoint" />
          </mxGeometry>
        </mxCell>
        <mxCell id="n5KL9pSzOatZ4EzuZmkm-33" value="Check card tiles" style="rounded=1;whiteSpace=wrap;html=1;fontSize=14;" parent="1" vertex="1">
          <mxGeometry x="-715" y="930" width="160" height="30" as="geometry" />
        </mxCell>
        <mxCell id="n5KL9pSzOatZ4EzuZmkm-34" value="" style="shape=flexArrow;endArrow=classic;html=1;rounded=0;width=4.444444444444445;endSize=4.075555555555556;endWidth=8.69135802469136;exitX=0.5;exitY=1;exitDx=0;exitDy=0;entryX=0.5;entryY=0;entryDx=0;entryDy=0;" parent="1" source="n5KL9pSzOatZ4EzuZmkm-30" target="n5KL9pSzOatZ4EzuZmkm-33" edge="1">
          <mxGeometry width="50" height="50" relative="1" as="geometry">
            <mxPoint x="-645" y="830" as="sourcePoint" />
            <mxPoint x="-645" y="860" as="targetPoint" />
          </mxGeometry>
        </mxCell>
        <mxCell id="n5KL9pSzOatZ4EzuZmkm-35" value="Pawn/Claim or&amp;nbsp;&lt;div&gt;Effect tile?&lt;/div&gt;" style="rhombus;whiteSpace=wrap;html=1;fontSize=10;" parent="1" vertex="1">
          <mxGeometry x="-690" y="990" width="110" height="60" as="geometry" />
        </mxCell>
        <mxCell id="n5KL9pSzOatZ4EzuZmkm-36" value="" style="endArrow=classic;html=1;rounded=0;exitX=0.5;exitY=1;exitDx=0;exitDy=0;entryX=0.5;entryY=0;entryDx=0;entryDy=0;" parent="1" source="n5KL9pSzOatZ4EzuZmkm-35" target="MBYqyQMq8Igke2TgfzJY-1" edge="1">
          <mxGeometry width="50" height="50" relative="1" as="geometry">
            <mxPoint x="-575" y="1050" as="sourcePoint" />
            <mxPoint x="-635" y="1070" as="targetPoint" />
          </mxGeometry>
        </mxCell>
        <mxCell id="n5KL9pSzOatZ4EzuZmkm-37" value="&lt;span style=&quot;font-size: 9px; text-wrap-mode: wrap;&quot;&gt;Pawn/Claim&lt;/span&gt;" style="text;html=1;align=center;verticalAlign=middle;resizable=0;points=[];autosize=1;strokeColor=none;fillColor=none;fontFamily=Helvetica;fontSize=12;fontColor=default;spacing=0;" parent="1" vertex="1">
          <mxGeometry x="-700" y="1050" width="70" height="20" as="geometry" />
        </mxCell>
        <mxCell id="n5KL9pSzOatZ4EzuZmkm-38" value="&lt;font&gt;Flip the user claim&lt;/font&gt;" style="rounded=1;whiteSpace=wrap;html=1;fontSize=14;" parent="1" vertex="1">
          <mxGeometry x="-702.5" y="1170" width="135" height="30" as="geometry" />
        </mxCell>
        <mxCell id="n5KL9pSzOatZ4EzuZmkm-39" value="" style="endArrow=classic;html=1;rounded=0;entryX=0.5;entryY=-0.041;entryDx=0;entryDy=0;entryPerimeter=0;exitX=0.5;exitY=1;exitDx=0;exitDy=0;" parent="1" source="n5KL9pSzOatZ4EzuZmkm-33" target="n5KL9pSzOatZ4EzuZmkm-35" edge="1">
          <mxGeometry width="50" height="50" relative="1" as="geometry">
            <mxPoint x="-705" y="1040" as="sourcePoint" />
            <mxPoint x="-655" y="990" as="targetPoint" />
          </mxGeometry>
        </mxCell>
        <mxCell id="n5KL9pSzOatZ4EzuZmkm-40" value="" style="endArrow=classic;html=1;rounded=0;exitX=1;exitY=0.5;exitDx=0;exitDy=0;entryX=0;entryY=0.5;entryDx=0;entryDy=0;" parent="1" source="n5KL9pSzOatZ4EzuZmkm-35" target="UXWryNyjHYuytCqDVRUD-3" edge="1">
          <mxGeometry width="50" height="50" relative="1" as="geometry">
            <mxPoint x="-575" y="1060" as="sourcePoint" />
            <mxPoint x="-555" y="1020" as="targetPoint" />
          </mxGeometry>
        </mxCell>
        <mxCell id="n5KL9pSzOatZ4EzuZmkm-41" value="&lt;span style=&quot;font-size: 9px; text-wrap-mode: wrap;&quot;&gt;Effect&lt;/span&gt;" style="text;html=1;align=center;verticalAlign=middle;resizable=0;points=[];autosize=1;strokeColor=none;fillColor=none;fontFamily=Helvetica;fontSize=12;fontColor=default;spacing=0;" parent="1" vertex="1">
          <mxGeometry x="-612.5" y="1027.5" width="40" height="20" as="geometry" />
        </mxCell>
        <mxCell id="n5KL9pSzOatZ4EzuZmkm-42" value="Not implemented" style="text;html=1;align=center;verticalAlign=middle;resizable=0;points=[];autosize=1;strokeColor=none;fillColor=none;fontSize=10;fontColor=#808080;" parent="1" vertex="1">
          <mxGeometry x="-784" y="823" width="100" height="30" as="geometry" />
        </mxCell>
        <mxCell id="n5KL9pSzOatZ4EzuZmkm-43" value="&lt;font&gt;Apply the effect to the tile/card (e.g. raise power)&amp;nbsp;&lt;/font&gt;&lt;span style=&quot;background-color: transparent; color: light-dark(rgb(0, 0, 0), rgb(255, 255, 255));&quot;&gt;according to affected tiles&amp;nbsp;&lt;/span&gt;&lt;span style=&quot;background-color: transparent; color: light-dark(rgb(0, 0, 0), rgb(255, 255, 255));&quot;&gt;(e.g. card tile or all allies)&lt;/span&gt;" style="rounded=1;whiteSpace=wrap;html=1;fontSize=13;" parent="1" vertex="1">
          <mxGeometry x="-360" y="970" width="150" height="100" as="geometry" />
        </mxCell>
        <mxCell id="n5KL9pSzOatZ4EzuZmkm-44" value="&lt;font&gt;Notify the tile/card the effect, and check for after calls by card abilities&lt;/font&gt;" style="rounded=1;whiteSpace=wrap;html=1;fontSize=13;" parent="1" vertex="1">
          <mxGeometry x="-160" y="980" width="140" height="80" as="geometry" />
        </mxCell>
        <mxCell id="n5KL9pSzOatZ4EzuZmkm-46" value="" style="endArrow=classic;html=1;rounded=0;exitX=1;exitY=0.5;exitDx=0;exitDy=0;entryX=0;entryY=0.5;entryDx=0;entryDy=0;" parent="1" source="n5KL9pSzOatZ4EzuZmkm-43" target="n5KL9pSzOatZ4EzuZmkm-44" edge="1">
          <mxGeometry width="50" height="50" relative="1" as="geometry">
            <mxPoint x="-430" y="1020" as="sourcePoint" />
            <mxPoint x="-385" y="1020" as="targetPoint" />
          </mxGeometry>
        </mxCell>
        <mxCell id="n5KL9pSzOatZ4EzuZmkm-47" value="" style="endArrow=classic;html=1;rounded=0;exitX=0.5;exitY=1;exitDx=0;exitDy=0;entryX=0.48;entryY=1.002;entryDx=0;entryDy=0;entryPerimeter=0;" parent="1" source="n5KL9pSzOatZ4EzuZmkm-44" target="n5KL9pSzOatZ4EzuZmkm-43" edge="1">
          <mxGeometry width="50" height="50" relative="1" as="geometry">
            <mxPoint x="-310" y="1150" as="sourcePoint" />
            <mxPoint x="-260" y="1100" as="targetPoint" />
            <Array as="points">
              <mxPoint x="-90" y="1100" />
              <mxPoint x="-288" y="1100" />
            </Array>
          </mxGeometry>
        </mxCell>
        <mxCell id="UXWryNyjHYuytCqDVRUD-1" value="Pass w/ card_event&amp;nbsp;&lt;div&gt;&quot;played&quot;&lt;/div&gt;" style="text;html=1;align=center;verticalAlign=middle;resizable=0;points=[];autosize=1;strokeColor=none;fillColor=none;fontSize=10;" parent="1" vertex="1">
          <mxGeometry x="-510" y="930" width="110" height="40" as="geometry" />
        </mxCell>
        <mxCell id="UXWryNyjHYuytCqDVRUD-2" value="Pass w/ card_event (enfeebled, destroyed, etc.)" style="text;html=1;align=center;verticalAlign=middle;resizable=0;points=[];autosize=1;strokeColor=none;fillColor=none;fontSize=12;" parent="1" vertex="1">
          <mxGeometry x="-330" y="1095" width="280" height="30" as="geometry" />
        </mxCell>
        <mxCell id="UXWryNyjHYuytCqDVRUD-3" value="card_event&amp;nbsp;&lt;div&gt;matches &quot;when&quot; condition?&lt;/div&gt;" style="rhombus;whiteSpace=wrap;html=1;fontSize=10;" parent="1" vertex="1">
          <mxGeometry x="-490" y="980" width="100" height="80" as="geometry" />
        </mxCell>
        <mxCell id="UXWryNyjHYuytCqDVRUD-4" value="" style="endArrow=classic;html=1;rounded=0;entryX=0;entryY=0.5;entryDx=0;entryDy=0;" parent="1" source="UXWryNyjHYuytCqDVRUD-3" target="n5KL9pSzOatZ4EzuZmkm-43" edge="1">
          <mxGeometry width="50" height="50" relative="1" as="geometry">
            <mxPoint x="-490" y="1110" as="sourcePoint" />
            <mxPoint x="-440" y="1060" as="targetPoint" />
          </mxGeometry>
        </mxCell>
        <mxCell id="UXWryNyjHYuytCqDVRUD-5" value="" style="endArrow=classic;html=1;rounded=0;entryX=1;entryY=0.5;entryDx=0;entryDy=0;" parent="1" target="n5KL9pSzOatZ4EzuZmkm-33" edge="1">
          <mxGeometry width="50" height="50" relative="1" as="geometry">
            <mxPoint x="-510" y="1020" as="sourcePoint" />
            <mxPoint x="-520" y="940" as="targetPoint" />
            <Array as="points">
              <mxPoint x="-510" y="945" />
            </Array>
          </mxGeometry>
        </mxCell>
        <mxCell id="MBYqyQMq8Igke2TgfzJY-1" value="User&amp;nbsp;&lt;div&gt;already&amp;nbsp;&lt;span style=&quot;background-color: transparent; color: light-dark(rgb(0, 0, 0), rgb(255, 255, 255));&quot;&gt;claimed&amp;nbsp;&lt;/span&gt;&lt;div&gt;this tile?&lt;/div&gt;&lt;/div&gt;" style="rhombus;whiteSpace=wrap;html=1;fontSize=10;" parent="1" vertex="1">
          <mxGeometry x="-690" y="1080" width="110" height="60" as="geometry" />
        </mxCell>
        <mxCell id="MBYqyQMq8Igke2TgfzJY-2" value="" style="endArrow=classic;html=1;rounded=0;exitX=0.5;exitY=1;exitDx=0;exitDy=0;" parent="1" source="MBYqyQMq8Igke2TgfzJY-1" edge="1">
          <mxGeometry width="50" height="50" relative="1" as="geometry">
            <mxPoint x="-410" y="990" as="sourcePoint" />
            <mxPoint x="-635" y="1169" as="targetPoint" />
          </mxGeometry>
        </mxCell>
        <mxCell id="MBYqyQMq8Igke2TgfzJY-3" value="No" style="text;html=1;align=center;verticalAlign=middle;resizable=0;points=[];autosize=1;strokeColor=none;fillColor=none;" parent="1" vertex="1">
          <mxGeometry x="-674" y="1133" width="40" height="30" as="geometry" />
        </mxCell>
        <mxCell id="MBYqyQMq8Igke2TgfzJY-4" value="&lt;font&gt;Raise pawn rank&lt;/font&gt;" style="rounded=1;whiteSpace=wrap;html=1;fontSize=14;" parent="1" vertex="1">
          <mxGeometry x="-550" y="1095" width="135" height="30" as="geometry" />
        </mxCell>
        <mxCell id="MBYqyQMq8Igke2TgfzJY-5" value="" style="endArrow=classic;html=1;rounded=0;entryX=0;entryY=0.5;entryDx=0;entryDy=0;exitX=1;exitY=0.5;exitDx=0;exitDy=0;" parent="1" source="MBYqyQMq8Igke2TgfzJY-1" target="MBYqyQMq8Igke2TgfzJY-4" edge="1">
          <mxGeometry width="50" height="50" relative="1" as="geometry">
            <mxPoint x="-640" y="970" as="sourcePoint" />
            <mxPoint x="-640" y="998" as="targetPoint" />
          </mxGeometry>
        </mxCell>
        <mxCell id="NesHkq1TEa1aiMqRjg7O-1" value="&lt;span style=&quot;font-size: 14px; font-weight: 700; text-wrap-mode: nowrap;&quot;&gt;Start Playing&lt;/span&gt;" style="rounded=1;whiteSpace=wrap;html=1;" parent="1" vertex="1">
          <mxGeometry x="-567.5" y="470" width="160" height="60" as="geometry" />
        </mxCell>
        <mxCell id="NesHkq1TEa1aiMqRjg7O-3" value="Switch to Next Player" style="rounded=1;whiteSpace=wrap;html=1;fontSize=14;" parent="1" vertex="1">
          <mxGeometry x="-290" y="480" width="170" height="40" as="geometry" />
        </mxCell>
        <mxCell id="NesHkq1TEa1aiMqRjg7O-5" value="Player&lt;div&gt;pass?&lt;/div&gt;" style="rhombus;whiteSpace=wrap;html=1;fontSize=10;" parent="1" vertex="1">
          <mxGeometry x="-240" y="677.5" width="70" height="65" as="geometry" />
        </mxCell>
        <mxCell id="NesHkq1TEa1aiMqRjg7O-6" value="" style="endArrow=classic;html=1;rounded=0;entryX=0.5;entryY=0;entryDx=0;entryDy=0;" parent="1" source="NesHkq1TEa1aiMqRjg7O-3" target="6ZSY0ZKsfsTzMGPb3TbR-2" edge="1">
          <mxGeometry width="50" height="50" relative="1" as="geometry">
            <mxPoint x="-230" y="700" as="sourcePoint" />
            <mxPoint x="-180" y="650" as="targetPoint" />
          </mxGeometry>
        </mxCell>
        <mxCell id="NesHkq1TEa1aiMqRjg7O-7" value="" style="endArrow=classic;html=1;rounded=0;exitX=0;exitY=0.5;exitDx=0;exitDy=0;entryX=1;entryY=0.5;entryDx=0;entryDy=0;" parent="1" source="NesHkq1TEa1aiMqRjg7O-5" target="6ZSY0ZKsfsTzMGPb3TbR-1" edge="1">
          <mxGeometry width="50" height="50" relative="1" as="geometry">
            <mxPoint x="-530" y="700" as="sourcePoint" />
            <mxPoint x="-294.68499999999995" y="695.1199999999999" as="targetPoint" />
          </mxGeometry>
        </mxCell>
        <mxCell id="NesHkq1TEa1aiMqRjg7O-8" value="&lt;font&gt;Render UI and&amp;nbsp;&lt;/font&gt;&lt;div&gt;Broadcast to players&lt;/div&gt;" style="rounded=1;whiteSpace=wrap;html=1;fontSize=14;" parent="1" vertex="1">
          <mxGeometry x="-40" y="890" width="145" height="60" as="geometry" />
        </mxCell>
        <mxCell id="NesHkq1TEa1aiMqRjg7O-9" value="" style="endArrow=classic;html=1;rounded=0;exitX=0.5;exitY=1;exitDx=0;exitDy=0;entryX=0.5;entryY=0;entryDx=0;entryDy=0;" parent="1" source="NesHkq1TEa1aiMqRjg7O-5" target="NesHkq1TEa1aiMqRjg7O-10" edge="1">
          <mxGeometry width="50" height="50" relative="1" as="geometry">
            <mxPoint x="-180" y="735" as="sourcePoint" />
            <mxPoint x="-95" y="692.5" as="targetPoint" />
          </mxGeometry>
        </mxCell>
        <mxCell id="NesHkq1TEa1aiMqRjg7O-10" value="Previous player&lt;div&gt;pass?&lt;/div&gt;" style="rhombus;whiteSpace=wrap;html=1;fontSize=10;" parent="1" vertex="1">
          <mxGeometry x="-240" y="772.5" width="70" height="90" as="geometry" />
        </mxCell>
        <mxCell id="NesHkq1TEa1aiMqRjg7O-12" value="N" style="text;html=1;align=center;verticalAlign=middle;resizable=0;points=[];autosize=1;strokeColor=none;fillColor=none;" parent="1" vertex="1">
          <mxGeometry x="-270" y="685" width="30" height="30" as="geometry" />
        </mxCell>
        <mxCell id="NesHkq1TEa1aiMqRjg7O-14" value="Y" style="text;html=1;align=center;verticalAlign=middle;resizable=0;points=[];autosize=1;strokeColor=none;fillColor=none;" parent="1" vertex="1">
          <mxGeometry x="-235" y="735" width="30" height="30" as="geometry" />
        </mxCell>
        <mxCell id="NesHkq1TEa1aiMqRjg7O-15" value="" style="endArrow=classic;html=1;rounded=0;entryX=0;entryY=0.5;entryDx=0;entryDy=0;exitX=1;exitY=0.5;exitDx=0;exitDy=0;" parent="1" source="NesHkq1TEa1aiMqRjg7O-10" target="NesHkq1TEa1aiMqRjg7O-17" edge="1">
          <mxGeometry width="50" height="50" relative="1" as="geometry">
            <mxPoint y="646" as="sourcePoint" />
            <mxPoint x="20" y="693" as="targetPoint" />
          </mxGeometry>
        </mxCell>
        <mxCell id="NesHkq1TEa1aiMqRjg7O-16" value="Y" style="text;html=1;align=center;verticalAlign=middle;resizable=0;points=[];autosize=1;strokeColor=none;fillColor=none;" parent="1" vertex="1">
          <mxGeometry x="-180" y="790" width="30" height="30" as="geometry" />
        </mxCell>
        <mxCell id="NesHkq1TEa1aiMqRjg7O-17" value="&lt;font style=&quot;font-size: 12px;&quot;&gt;Calculate total scores of winning lanes.&amp;nbsp; Determine who&#39;s the winner&lt;/font&gt;" style="rounded=1;whiteSpace=wrap;html=1;fontSize=14;" parent="1" vertex="1">
          <mxGeometry x="50" y="780" width="170" height="70" as="geometry" />
        </mxCell>
        <mxCell id="NesHkq1TEa1aiMqRjg7O-19" value="" style="endArrow=classic;html=1;rounded=0;entryX=0.5;entryY=1;entryDx=0;entryDy=0;dashed=1;" parent="1" target="NesHkq1TEa1aiMqRjg7O-8" edge="1">
          <mxGeometry width="50" height="50" relative="1" as="geometry">
            <mxPoint x="-10" y="1020" as="sourcePoint" />
            <mxPoint x="40" y="970" as="targetPoint" />
          </mxGeometry>
        </mxCell>
        <mxCell id="NesHkq1TEa1aiMqRjg7O-20" value="" style="endArrow=classic;html=1;rounded=0;dashed=1;entryX=0.625;entryY=1.05;entryDx=0;entryDy=0;entryPerimeter=0;" parent="1" target="NesHkq1TEa1aiMqRjg7O-8" edge="1">
          <mxGeometry width="50" height="50" relative="1" as="geometry">
            <mxPoint x="-400" y="1170" as="sourcePoint" />
            <mxPoint x="50" y="950" as="targetPoint" />
            <Array as="points">
              <mxPoint x="47" y="1170" />
            </Array>
          </mxGeometry>
        </mxCell>
        <mxCell id="6ZSY0ZKsfsTzMGPb3TbR-1" value="&lt;font&gt;Wait for player&#39;s move&lt;/font&gt;" style="rounded=1;whiteSpace=wrap;html=1;fontSize=13;fontStyle=1" parent="1" vertex="1">
          <mxGeometry x="-440" y="680" width="135" height="60" as="geometry" />
        </mxCell>
        <mxCell id="6ZSY0ZKsfsTzMGPb3TbR-2" value="Any&amp;nbsp;&lt;div&gt;more&amp;nbsp;&lt;span style=&quot;background-color: transparent; color: light-dark(rgb(0, 0, 0), rgb(255, 255, 255));&quot;&gt;claimed&amp;nbsp;&lt;/span&gt;&lt;/div&gt;&lt;div&gt;&lt;span style=&quot;background-color: transparent; color: light-dark(rgb(0, 0, 0), rgb(255, 255, 255));&quot;&gt;tile&amp;nbsp;&lt;/span&gt;&lt;span style=&quot;background-color: transparent; color: light-dark(rgb(0, 0, 0), rgb(255, 255, 255));&quot;&gt;for this&amp;nbsp;&lt;/span&gt;&lt;/div&gt;&lt;div&gt;&lt;span style=&quot;background-color: transparent; color: light-dark(rgb(0, 0, 0), rgb(255, 255, 255));&quot;&gt;player?&lt;/span&gt;&lt;/div&gt;" style="rhombus;whiteSpace=wrap;html=1;fontSize=10;" parent="1" vertex="1">
          <mxGeometry x="-270" y="550" width="130" height="72.5" as="geometry" />
        </mxCell>
        <mxCell id="6ZSY0ZKsfsTzMGPb3TbR-3" value="" style="endArrow=classic;html=1;rounded=0;entryX=0.5;entryY=0;entryDx=0;entryDy=0;exitX=0.5;exitY=1;exitDx=0;exitDy=0;" parent="1" source="6ZSY0ZKsfsTzMGPb3TbR-2" target="NesHkq1TEa1aiMqRjg7O-5" edge="1">
          <mxGeometry width="50" height="50" relative="1" as="geometry">
            <mxPoint x="-175" y="630" as="sourcePoint" />
            <mxPoint x="-180" y="570" as="targetPoint" />
          </mxGeometry>
        </mxCell>
        <mxCell id="6ZSY0ZKsfsTzMGPb3TbR-4" value="Y" style="text;html=1;align=center;verticalAlign=middle;resizable=0;points=[];autosize=1;strokeColor=none;fillColor=none;" parent="1" vertex="1">
          <mxGeometry x="-205" y="610" width="30" height="30" as="geometry" />
        </mxCell>
        <mxCell id="6ZSY0ZKsfsTzMGPb3TbR-5" value="N" style="text;html=1;align=center;verticalAlign=middle;resizable=0;points=[];autosize=1;strokeColor=none;fillColor=none;" parent="1" vertex="1">
          <mxGeometry x="-290" y="580" width="30" height="30" as="geometry" />
        </mxCell>
        <mxCell id="6ZSY0ZKsfsTzMGPb3TbR-7" value="Any&amp;nbsp;&lt;div&gt;replacement&lt;div&gt;card left for&amp;nbsp;&lt;span style=&quot;background-color: transparent; color: light-dark(rgb(179, 179, 179), rgb(83, 83, 83));&quot;&gt;this&lt;/span&gt;&lt;/div&gt;&lt;div&gt;&lt;span style=&quot;background-color: transparent; color: light-dark(rgb(179, 179, 179), rgb(83, 83, 83));&quot;&gt;&amp;nbsp;player?&lt;/span&gt;&lt;/div&gt;&lt;/div&gt;" style="rhombus;whiteSpace=wrap;html=1;fontSize=10;strokeColor=#999999;fontColor=#B3B3B3;" parent="1" vertex="1">
          <mxGeometry x="-845" y="983.75" width="130" height="72.5" as="geometry" />
        </mxCell>
        <mxCell id="k6DYfCQiERcclReqFoV7-1" value="N" style="text;html=1;align=center;verticalAlign=middle;resizable=0;points=[];autosize=1;strokeColor=none;fillColor=none;" parent="1" vertex="1">
          <mxGeometry x="-270" y="790" width="30" height="30" as="geometry" />
        </mxCell>
        <mxCell id="nUIR9b1aBhN5wEsGHgej-1" value="" style="endArrow=classic;html=1;rounded=0;exitX=0;exitY=0.5;exitDx=0;exitDy=0;entryX=1;entryY=0.5;entryDx=0;entryDy=0;dashed=1;dashPattern=8 8;" edge="1" parent="1" source="6ZSY0ZKsfsTzMGPb3TbR-1" target="n5KL9pSzOatZ4EzuZmkm-26">
          <mxGeometry width="50" height="50" relative="1" as="geometry">
            <mxPoint x="-460" y="640" as="sourcePoint" />
            <mxPoint x="-410" y="590" as="targetPoint" />
          </mxGeometry>
        </mxCell>
        <mxCell id="nUIR9b1aBhN5wEsGHgej-2" value="" style="endArrow=classic;html=1;rounded=0;exitX=0;exitY=0.5;exitDx=0;exitDy=0;entryX=0.119;entryY=1.075;entryDx=0;entryDy=0;entryPerimeter=0;" edge="1" parent="1" source="6ZSY0ZKsfsTzMGPb3TbR-2" target="NesHkq1TEa1aiMqRjg7O-3">
          <mxGeometry width="50" height="50" relative="1" as="geometry">
            <mxPoint x="-370" y="620" as="sourcePoint" />
            <mxPoint x="-320" y="570" as="targetPoint" />
          </mxGeometry>
        </mxCell>
        <mxCell id="nUIR9b1aBhN5wEsGHgej-3" value="" style="endArrow=classic;html=1;rounded=0;entryX=0.5;entryY=1;entryDx=0;entryDy=0;exitX=0;exitY=0.5;exitDx=0;exitDy=0;" edge="1" parent="1" source="NesHkq1TEa1aiMqRjg7O-10" target="6ZSY0ZKsfsTzMGPb3TbR-1">
          <mxGeometry width="50" height="50" relative="1" as="geometry">
            <mxPoint x="-350" y="860" as="sourcePoint" />
            <mxPoint x="-300" y="810" as="targetPoint" />
            <Array as="points">
              <mxPoint x="-370" y="818" />
            </Array>
          </mxGeometry>
        </mxCell>
        <mxCell id="nUIR9b1aBhN5wEsGHgej-4" value="" style="endArrow=classic;html=1;rounded=0;exitX=0.5;exitY=0;exitDx=0;exitDy=0;entryX=1;entryY=1;entryDx=0;entryDy=0;dashed=1;dashPattern=1 1;" edge="1" parent="1" source="NesHkq1TEa1aiMqRjg7O-8" target="NesHkq1TEa1aiMqRjg7O-3">
          <mxGeometry width="50" height="50" relative="1" as="geometry">
            <mxPoint x="-70" y="900" as="sourcePoint" />
            <mxPoint x="-100" y="560" as="targetPoint" />
          </mxGeometry>
        </mxCell>
        <mxCell id="nUIR9b1aBhN5wEsGHgej-5" value="" style="endArrow=classic;html=1;rounded=0;entryX=0.075;entryY=0.063;entryDx=0;entryDy=0;entryPerimeter=0;exitX=0.5;exitY=1;exitDx=0;exitDy=0;" edge="1" parent="1" source="NesHkq1TEa1aiMqRjg7O-1" target="6ZSY0ZKsfsTzMGPb3TbR-1">
          <mxGeometry width="50" height="50" relative="1" as="geometry">
            <mxPoint x="-550" y="670" as="sourcePoint" />
            <mxPoint x="-500" y="620" as="targetPoint" />
          </mxGeometry>
        </mxCell>
        <mxCell id="nUIR9b1aBhN5wEsGHgej-6" value="&lt;span style=&quot;font-size: 14px; font-weight: 700; text-wrap-mode: nowrap;&quot;&gt;Player 1&lt;/span&gt;&lt;div&gt;&lt;span style=&quot;font-size: 14px; font-weight: 700; text-wrap-mode: nowrap;&quot;&gt;Starts New Game&lt;/span&gt;&lt;/div&gt;" style="rounded=1;whiteSpace=wrap;html=1;" vertex="1" parent="1">
          <mxGeometry x="-1280" y="480" width="160" height="60" as="geometry" />
        </mxCell>
        <mxCell id="nUIR9b1aBhN5wEsGHgej-7" value="Pick 1 of User&#39;s Deck" style="rounded=1;whiteSpace=wrap;html=1;fontSize=14;" vertex="1" parent="1">
          <mxGeometry x="-1280" y="587.5" width="160" height="47.5" as="geometry" />
        </mxCell>
        <mxCell id="nUIR9b1aBhN5wEsGHgej-8" value="Random Sort Cards" style="rounded=1;whiteSpace=wrap;html=1;fontSize=14;" vertex="1" parent="1">
          <mxGeometry x="-1280" y="682.5" width="160" height="47.5" as="geometry" />
        </mxCell>
        <mxCell id="nUIR9b1aBhN5wEsGHgej-9" value="Player Checks to Use Which of 1st 5 Cards" style="rounded=1;whiteSpace=wrap;html=1;fontSize=14;fontColor=#999999;" vertex="1" parent="1">
          <mxGeometry x="-1280" y="777.5" width="160" height="67.5" as="geometry" />
        </mxCell>
        <mxCell id="nUIR9b1aBhN5wEsGHgej-13" value="" style="endArrow=classic;html=1;rounded=0;entryX=0.5;entryY=0;entryDx=0;entryDy=0;exitX=0.5;exitY=1;exitDx=0;exitDy=0;" edge="1" parent="1" source="nUIR9b1aBhN5wEsGHgej-6" target="nUIR9b1aBhN5wEsGHgej-7">
          <mxGeometry width="50" height="50" relative="1" as="geometry">
            <mxPoint x="-1380" y="635" as="sourcePoint" />
            <mxPoint x="-1330" y="585" as="targetPoint" />
          </mxGeometry>
        </mxCell>
        <mxCell id="nUIR9b1aBhN5wEsGHgej-15" value="" style="endArrow=classic;html=1;rounded=0;entryX=0.5;entryY=0;entryDx=0;entryDy=0;exitX=0.5;exitY=1;exitDx=0;exitDy=0;" edge="1" parent="1" source="nUIR9b1aBhN5wEsGHgej-7" target="nUIR9b1aBhN5wEsGHgej-8">
          <mxGeometry width="50" height="50" relative="1" as="geometry">
            <mxPoint x="-1350" y="705" as="sourcePoint" />
            <mxPoint x="-1300" y="655" as="targetPoint" />
          </mxGeometry>
        </mxCell>
        <mxCell id="nUIR9b1aBhN5wEsGHgej-16" value="" style="endArrow=classic;html=1;rounded=0;exitX=0.5;exitY=1;exitDx=0;exitDy=0;" edge="1" parent="1" source="nUIR9b1aBhN5wEsGHgej-8" target="nUIR9b1aBhN5wEsGHgej-9">
          <mxGeometry width="50" height="50" relative="1" as="geometry">
            <mxPoint x="-1280" y="735" as="sourcePoint" />
            <mxPoint x="-1280" y="783" as="targetPoint" />
          </mxGeometry>
        </mxCell>
        <mxCell id="nUIR9b1aBhN5wEsGHgej-17" value="&lt;font&gt;Wait for player&#39;s move&lt;/font&gt;" style="rounded=1;whiteSpace=wrap;html=1;fontSize=13;fontStyle=1" vertex="1" parent="1">
          <mxGeometry x="-1057.5" y="655" width="135" height="60" as="geometry" />
        </mxCell>
        <mxCell id="nUIR9b1aBhN5wEsGHgej-18" value="" style="endArrow=classic;html=1;rounded=0;exitX=1;exitY=0.5;exitDx=0;exitDy=0;entryX=0;entryY=0.5;entryDx=0;entryDy=0;" edge="1" parent="1" source="nUIR9b1aBhN5wEsGHgej-9" target="nUIR9b1aBhN5wEsGHgej-23">
          <mxGeometry width="50" height="50" relative="1" as="geometry">
            <mxPoint x="-930" y="765" as="sourcePoint" />
            <mxPoint x="-1110" y="895" as="targetPoint" />
          </mxGeometry>
        </mxCell>
        <mxCell id="nUIR9b1aBhN5wEsGHgej-19" value="&lt;span style=&quot;font-size: 14px; font-weight: 700; text-wrap-mode: nowrap;&quot;&gt;Player 2&lt;/span&gt;&lt;div&gt;&lt;span style=&quot;font-size: 14px; font-weight: 700; text-wrap-mode: nowrap;&quot;&gt;Joins Game&lt;/span&gt;&lt;/div&gt;" style="rounded=1;whiteSpace=wrap;html=1;" vertex="1" parent="1">
          <mxGeometry x="-1055" y="527.5" width="130" height="60" as="geometry" />
        </mxCell>
        <mxCell id="nUIR9b1aBhN5wEsGHgej-20" value="" style="endArrow=classic;html=1;rounded=0;entryX=0.5;entryY=1;entryDx=0;entryDy=0;exitX=0.5;exitY=0;exitDx=0;exitDy=0;dashed=1;dashPattern=8 8;" edge="1" parent="1" source="nUIR9b1aBhN5wEsGHgej-17" target="nUIR9b1aBhN5wEsGHgej-19">
          <mxGeometry width="50" height="50" relative="1" as="geometry">
            <mxPoint x="-1030" y="775" as="sourcePoint" />
            <mxPoint x="-980" y="725" as="targetPoint" />
          </mxGeometry>
        </mxCell>
        <mxCell id="nUIR9b1aBhN5wEsGHgej-21" value="Not Implemented" style="text;html=1;align=center;verticalAlign=middle;resizable=0;points=[];autosize=1;strokeColor=none;fillColor=none;fontColor=#999999;" vertex="1" parent="1">
          <mxGeometry x="-1390" y="796.25" width="110" height="30" as="geometry" />
        </mxCell>
        <mxCell id="nUIR9b1aBhN5wEsGHgej-22" value="" style="endArrow=classic;html=1;rounded=0;entryX=1.02;entryY=0.632;entryDx=0;entryDy=0;entryPerimeter=0;exitX=-0.001;exitY=0.605;exitDx=0;exitDy=0;exitPerimeter=0;" edge="1" parent="1" source="nUIR9b1aBhN5wEsGHgej-19" target="nUIR9b1aBhN5wEsGHgej-7">
          <mxGeometry width="50" height="50" relative="1" as="geometry">
            <mxPoint x="-1080" y="705" as="sourcePoint" />
            <mxPoint x="-1050" y="685" as="targetPoint" />
          </mxGeometry>
        </mxCell>
        <mxCell id="nUIR9b1aBhN5wEsGHgej-23" value="Both players Joined?" style="rhombus;whiteSpace=wrap;html=1;" vertex="1" parent="1">
          <mxGeometry x="-1045" y="761.5" width="110" height="97" as="geometry" />
        </mxCell>
        <mxCell id="nUIR9b1aBhN5wEsGHgej-24" value="" style="endArrow=classic;html=1;rounded=0;entryX=0.5;entryY=1;entryDx=0;entryDy=0;" edge="1" parent="1" source="nUIR9b1aBhN5wEsGHgej-23" target="nUIR9b1aBhN5wEsGHgej-17">
          <mxGeometry width="50" height="50" relative="1" as="geometry">
            <mxPoint x="-1080" y="810" as="sourcePoint" />
            <mxPoint x="-1030" y="760" as="targetPoint" />
          </mxGeometry>
        </mxCell>
        <mxCell id="nUIR9b1aBhN5wEsGHgej-25" value="N" style="text;html=1;align=center;verticalAlign=middle;resizable=0;points=[];autosize=1;strokeColor=none;fillColor=none;" vertex="1" parent="1">
          <mxGeometry x="-1020" y="742.5" width="30" height="30" as="geometry" />
        </mxCell>
        <mxCell id="nUIR9b1aBhN5wEsGHgej-26" value="Y" style="text;html=1;align=center;verticalAlign=middle;resizable=0;points=[];autosize=1;strokeColor=none;fillColor=none;" vertex="1" parent="1">
          <mxGeometry x="-952.5" y="815" width="30" height="30" as="geometry" />
        </mxCell>
        <mxCell id="nUIR9b1aBhN5wEsGHgej-27" value="" style="shape=flexArrow;endArrow=classic;html=1;rounded=0;exitX=1;exitY=0.5;exitDx=0;exitDy=0;entryX=0;entryY=0.5;entryDx=0;entryDy=0;" edge="1" parent="1" source="nUIR9b1aBhN5wEsGHgej-23" target="NesHkq1TEa1aiMqRjg7O-1">
          <mxGeometry width="50" height="50" relative="1" as="geometry">
            <mxPoint x="-900" y="780" as="sourcePoint" />
            <mxPoint x="-850" y="730" as="targetPoint" />
          </mxGeometry>
        </mxCell>
        <mxCell id="nUIR9b1aBhN5wEsGHgej-28" value="" style="shape=flexArrow;endArrow=classic;html=1;rounded=0;entryX=0;entryY=0.5;entryDx=0;entryDy=0;" edge="1" parent="1" target="nUIR9b1aBhN5wEsGHgej-6">
          <mxGeometry width="50" height="50" relative="1" as="geometry">
            <mxPoint x="-1360" y="510" as="sourcePoint" />
            <mxPoint x="-1370" y="530" as="targetPoint" />
          </mxGeometry>
        </mxCell>
        <mxCell id="nUIR9b1aBhN5wEsGHgej-29" value="Notify Player 1&lt;div&gt;to Start&lt;/div&gt;&lt;div&gt;&lt;br&gt;&lt;/div&gt;" style="text;html=1;align=center;verticalAlign=middle;resizable=0;points=[];autosize=1;strokeColor=none;fillColor=none;" vertex="1" parent="1">
          <mxGeometry x="-820" y="600" width="100" height="60" as="geometry" />
        </mxCell>
      </root>
    </mxGraphModel>
  </diagram>
</mxfile>
